<svg xmlns="http://www.w3.org/2000/svg" viewBox="0 0 400 300" width="406" height="306" class="illustration styles_illustrationTablet__1DWOa"><g id="_554_finance_analytics_outline" data-name="#554_finance_analytics_outline"><path d="M132.82,229.67l5-37.23-2.16-62.25s-39.35,20.72-42.11,35.19c-3.08,16.13-5.18,49.47-6,64.29Z" fill="#ffc9b0"></path><path d="M132.82,230.67H87.59a1,1,0,0,1-.73-.31,1,1,0,0,1-.27-.75c.77-13.93,2.89-48.09,6-64.41,2.82-14.78,41-35,42.63-35.89a1,1,0,0,1,1.46.85l2.16,62.24a1,1,0,0,1,0,.17l-5,37.23A1,1,0,0,1,132.82,230.67Zm-44.18-2h43.3l4.91-36.28-2.1-60.55c-7,3.85-37.83,21.41-40.19,33.73C91.54,181.38,89.46,214.18,88.64,228.67Z" fill="#093f68"></path><rect x="123.89" y="70.33" width="183.64" height="146.3" rx="15.34" fill="#ff0055"></rect><path d="M292.19,217.64h-153a16.36,16.36,0,0,1-16.34-16.35V85.67a16.36,16.36,0,0,1,16.34-16.34h153a16.36,16.36,0,0,1,16.34,16.34V201.29A16.36,16.36,0,0,1,292.19,217.64Zm-153-146.31a14.35,14.35,0,0,0-14.34,14.34V201.29a14.36,14.36,0,0,0,14.34,14.35h153a14.36,14.36,0,0,0,14.34-14.35V85.67a14.35,14.35,0,0,0-14.34-14.34Z" fill="#093f68"></path><rect x="135.91" y="85.41" width="159.59" height="116.15" fill="#fff"></rect><path d="M295.51,202.56H135.92a1,1,0,0,1-1-1V85.41a1,1,0,0,1,1-1H295.51a1,1,0,0,1,1,1V201.56A1,1,0,0,1,295.51,202.56Zm-158.59-2H294.51V86.41H136.92Z" fill="#093f68"></path><rect x="150.02" y="176.19" width="17.46" height="11.78" fill="#f56132"></rect><path d="M167.47,189H150a1,1,0,0,1-1-1V176.19a1,1,0,0,1,1-1h17.45a1,1,0,0,1,1,1V188A1,1,0,0,1,167.47,189ZM151,187h15.45v-9.77H151Z" fill="#093f68"></path><rect x="178.5" y="170.51" width="17.46" height="17.46" fill="#f56132"></rect><path d="M196,189H178.5a1,1,0,0,1-1-1V170.51a1,1,0,0,1,1-1H196a1,1,0,0,1,1,1V188A1,1,0,0,1,196,189Zm-16.46-2H195V171.51H179.5Z" fill="#093f68"></path><rect x="206.98" y="154" width="17.46" height="33.97" fill="#ffbc0e"></rect><path d="M224.44,189H207a1,1,0,0,1-1-1V154a1,1,0,0,1,1-1h17.46a1,1,0,0,1,1,1v34A1,1,0,0,1,224.44,189ZM208,187h15.46V155H208Z" fill="#093f68"></path><rect x="235.46" y="133.19" width="17.46" height="54.77" fill="#70cc40"></rect><path d="M252.92,189H235.46a1,1,0,0,1-1-1V133.19a1,1,0,0,1,1-1h17.46a1,1,0,0,1,1,1V188A1,1,0,0,1,252.92,189Zm-16.46-2h15.46V134.19H236.46Z" fill="#093f68"></path><rect x="263.95" y="107.45" width="17.46" height="80.52" fill="#70cc40"></rect><path d="M281.4,189H264a1,1,0,0,1-1-1V107.45a1,1,0,0,1,1-1H281.4a1,1,0,0,1,1,1V188A1,1,0,0,1,281.4,189ZM265,187H280.4V108.45H265Z" fill="#093f68"></path><path d="M289.71,189H142.43a1,1,0,0,1,0-2H289.71a1,1,0,0,1,0,2Z" fill="#093f68"></path><path d="M244.19,147.33a14.14,14.14,0,1,1,14.14-14.14A14.16,14.16,0,0,1,244.19,147.33Zm0-26.28a12.14,12.14,0,1,0,12.14,12.14A12.16,12.16,0,0,0,244.19,121.05Z" fill="#093f68"></path><path d="M262.37,217.91l2.86,11.76h47.18c-3.44-7.74-8.73-19.46-9.81-21-1.64-2.38-1-33.52-7.07-44.11-3.27-5.37-9.33-7.19-15.33-6.65-1.8.16-18,4.17-18.47,2.19q-2.52-10.14-6-20a27.29,27.29,0,0,0-4.23-8.54c-1.87-2.28-5.19-4-7.72-2.47s-2.53,5.22-2.19,8.2c2,17.37,7.25,34.53,13,51,0,0-8.71-5.63-13-7.14s-8,2.6-5.14,11.41S262.37,217.91,262.37,217.91Z" fill="#ffc9b0"></path><path d="M312.41,230.67H265.23a1,1,0,0,1-1-.77l-2.76-11.39c-2.85-2.08-23.13-17.14-26-25.7-1.7-5.16-1.37-9.4.89-11.62a5.16,5.16,0,0,1,5.53-1c3,1,7.88,3.92,10.82,5.72-5-14.45-10.15-31.27-12.14-48.52-.35-3-.46-7.28,2.66-9.18s6.79,0,9,2.7,3.29,5.65,4.4,8.84c2.27,6.49,4.26,13.16,5.92,19.83,1.79.52,10.58-1.3,14-2,2-.41,3.05-.63,3.53-.67,7.18-.64,13.11,2,16.26,7.13,4.11,7.17,5.23,23.25,6,33.89.32,4.64.65,9.43,1.08,10.18.86,1.26,4.2,8.39,9.9,21.19a1,1,0,0,1-.08,1A1,1,0,0,1,312.41,230.67Zm-46.4-2h44.86c-5.06-11.33-8.36-18.4-9.1-19.47s-.93-4.15-1.42-11.17c-.72-10.46-1.82-26.26-5.69-33-2.72-4.47-8-6.73-14.37-6.16-.38,0-1.73.32-3.29.64-12.42,2.57-15.76,2.74-16.24.8-1.66-6.71-3.66-13.41-5.93-19.93a26.6,26.6,0,0,0-4.06-8.23c-1.64-2-4.44-3.46-6.43-2.26-1.63,1-2.17,3.29-1.72,7.24,2.1,18.14,7.74,35.85,13,50.78a1,1,0,0,1-1.49,1.17c-.08,0-8.65-5.58-12.81-7a3.22,3.22,0,0,0-3.47.59c-1.67,1.64-1.82,5.22-.39,9.57,2.77,8.4,25.29,24.75,25.52,24.91a1,1,0,0,1,.38.58Z" fill="#093f68"></path><path d="M93.41,188.91s-.25-20.86,23.65-35.89c20.5-12.88,21.53-5.33,20.45-.16-1.33,6.37-16.4,18.33-16.4,18.33s9.44,9.71-2.33,25" fill="#ffc9b0"></path><path d="M118.78,197.23a1,1,0,0,1-.6-.21,1,1,0,0,1-.19-1.4c11.11-14.48,2.49-23.64,2.4-23.73a1,1,0,0,1,.1-1.48c4.11-3.27,15-12.82,16-17.76.32-1.51.63-4.19-.86-5.22s-5.58-1.42-18.08,6.44c-12.08,7.59-17.73,16.71-20.35,23a34.19,34.19,0,0,0-2.83,12,1,1,0,0,1-1,1h0a1,1,0,0,1-1-1c0-.88,0-21.61,24.12-36.75,10.42-6.55,17.05-8.65,20.29-6.4,1.82,1.27,2.4,3.79,1.67,7.28-1.23,5.86-12.81,15.68-16,18.28,2,2.79,7.24,12.24-2.93,25.5A1,1,0,0,1,118.78,197.23Z" fill="#093f68"></path><path d="M237.77,129.45a1,1,0,0,1-.73-.32l-19.45-20.68H202.67a1,1,0,0,1,0-2H218a1,1,0,0,1,.73.31l19.75,21a1,1,0,0,1,0,1.42A1,1,0,0,1,237.77,129.45Z" fill="#093f68"></path><path d="M194.54,108.45H177.08a1,1,0,0,1,0-2h17.46a1,1,0,0,1,0,2Z" fill="#dfeaef"></path><path d="M194.54,119H182.43a1,1,0,0,1,0-2h12.11a1,1,0,0,1,0,2Z" fill="#dfeaef"></path><path d="M177.08,131.77h-22a1,1,0,0,1,0-2h22a1,1,0,0,1,0,2Z" fill="#dfeaef"></path><path d="M192.62,131.77H182.43a1,1,0,0,1,0-2h10.19a1,1,0,0,1,0,2Z" fill="#dfeaef"></path><path d="M184.87,144.48H155.12a1,1,0,0,1,0-2h29.75a1,1,0,0,1,0,2Z" fill="#dfeaef"></path><path d="M163.08,123.16a9.82,9.82,0,1,1,9.82-9.82A9.83,9.83,0,0,1,163.08,123.16Zm0-17.63a7.82,7.82,0,1,0,7.82,7.81A7.82,7.82,0,0,0,163.08,105.53Z" fill="#dfeaef"></path><path d="M163.08,123.16a9.82,9.82,0,1,1,5.83-17.71,1,1,0,0,1,.4.65,1,1,0,0,1-.19.74l-4.06,5.5h6.84a1,1,0,0,1,1,1A9.82,9.82,0,0,1,163.08,123.16Zm0-17.63a7.82,7.82,0,1,0,7.76,8.81h-7.76a1,1,0,0,1-.89-.55,1,1,0,0,1,.09-1l4.6-6.24A7.88,7.88,0,0,0,163.08,105.53Z" fill="#dfeaef"></path><rect x="235.46" y="94.05" width="45.94" height="3.75" fill="#ff0055"></rect><path d="M281.4,98.81H235.46a1,1,0,0,1-1-1V94.05a1,1,0,0,1,1-1H281.4a1,1,0,0,1,1,1v3.76A1,1,0,0,1,281.4,98.81Zm-44.94-2H280.4V95.05H236.46Z" fill="#093f68"></path></g></svg>