<svg xmlns="http://www.w3.org/2000/svg" viewBox="0 0 400 300" width="406" height="306" class="illustration styles_illustrationTablet__1DWOa"><g id="_291_ethereum_flatline" data-name="#291_ethereum_flatline"><path d="M182.39,195.65l-.14,0c-1.88-.52-52.87-30.12-58.68-33.49a.51.51,0,0,1,0-.9L146.36,149a.52.52,0,0,1,.7.21.51.51,0,0,1-.21.7l-22,11.76c16.22,9.42,56,32.4,57.64,32.92a.52.52,0,0,1-.14,1Z" fill="#d1d3d4"></path><path d="M219.93,192.62a.51.51,0,0,1-.27-1c2.24-1.43,79.52-42.21,82.81-43.95a.52.52,0,0,1,.7.22.51.51,0,0,1-.22.69c-.8.43-80.53,42.51-82.74,43.91A.57.57,0,0,1,219.93,192.62Z" fill="#d1d3d4"></path><polygon points="302.71 171.92 263.6 149.35 263.6 138.86 302.71 161.43 302.71 171.92" fill="#fff"></polygon><path d="M302.71,172.42a.54.54,0,0,1-.25-.06l-39.11-22.58a.5.5,0,0,1-.25-.43V138.86a.52.52,0,0,1,.25-.44.5.5,0,0,1,.5,0L303,161a.48.48,0,0,1,.25.43v10.49a.5.5,0,0,1-.25.44A.54.54,0,0,1,302.71,172.42ZM264.1,149.06l38.11,22v-9.34l-38.11-22Z" fill="#231f20"></path><polygon points="341.82 149.38 302.71 171.89 302.71 161.4 341.82 138.88 341.82 149.38" fill="#fff"></polygon><path d="M302.71,172.39a.45.45,0,0,1-.25-.07.5.5,0,0,1-.25-.43V161.4a.52.52,0,0,1,.25-.44l39.11-22.51a.5.5,0,0,1,.5,0,.5.5,0,0,1,.25.43v10.5a.5.5,0,0,1-.25.43L303,172.32A.45.45,0,0,1,302.71,172.39Zm.5-10.7V171l38.11-21.94v-9.34Zm38.61-12.31h0Z" fill="#231f20"></path><polygon points="302.71 161.44 263.6 138.86 302.71 116.28 341.82 138.86 302.71 161.44" fill="#fff"></polygon><path d="M302.71,161.94a.55.55,0,0,1-.25-.07l-39.11-22.58a.5.5,0,0,1-.25-.43.52.52,0,0,1,.25-.44l39.11-22.57a.5.5,0,0,1,.5,0l39.11,22.57a.52.52,0,0,1,.25.44.5.5,0,0,1-.25.43L303,161.87A.55.55,0,0,1,302.71,161.94ZM264.6,138.86l38.11,22,38.11-22-38.11-22Z" fill="#231f20"></path><path d="M302.71,156.05a.48.48,0,0,1-.26-.07L273.56,139.3a.51.51,0,0,1,0-.89l28.89-16.68a.53.53,0,0,1,.52,0l28.89,16.68a.51.51,0,0,1,0,.89L303,156A.48.48,0,0,1,302.71,156.05Zm-27.86-17.19,27.86,16.08,27.86-16.08-27.86-16.09Z" fill="#d1d3d4"></path><path d="M154.68,243.17a.48.48,0,0,1-.26-.07L88.34,203.51a.52.52,0,0,1,.53-.89l65.83,39.44L175.77,231a.52.52,0,0,1,.7.21.52.52,0,0,1-.22.7l-21.33,11.25A.5.5,0,0,1,154.68,243.17Z" fill="#d1d3d4"></path><path d="M226.24,207a.52.52,0,0,1-.24-1l43.15-22.74a.5.5,0,0,1,.49,0L311,206.05a.51.51,0,1,1-.5.9l-41.14-22.6L226.48,207A.53.53,0,0,1,226.24,207Z" fill="#d1d3d4"></path><ellipse cx="310.78" cy="206.5" rx="7.06" ry="4.07" fill="#fff"></ellipse><path d="M310.78,211.08a10.7,10.7,0,0,1-5.25-1.25,3.55,3.55,0,0,1,0-6.66,11.63,11.63,0,0,1,10.5,0,3.55,3.55,0,0,1,0,6.66A10.7,10.7,0,0,1,310.78,211.08Zm0-8.14a9.59,9.59,0,0,0-4.73,1.13,2.54,2.54,0,0,0,0,4.87,10.51,10.51,0,0,0,9.46,0,2.54,2.54,0,0,0,0-4.87A9.59,9.59,0,0,0,310.78,202.94Z" fill="#d1d3d4"></path><ellipse cx="148.94" cy="148.18" rx="7.06" ry="4.07" fill="#fff"></ellipse><path d="M148.94,152.76a10.64,10.64,0,0,1-5.24-1.26,3.54,3.54,0,0,1,0-6.65,11.61,11.61,0,0,1,10.49,0,3.54,3.54,0,0,1,0,6.65A10.68,10.68,0,0,1,148.94,152.76Zm0-8.15a9.73,9.73,0,0,0-4.73,1.13,2.54,2.54,0,0,0,0,4.87,10.46,10.46,0,0,0,9.47,0,2.54,2.54,0,0,0,0-4.87A9.74,9.74,0,0,0,148.94,144.61Z" fill="#d1d3d4"></path><polygon points="92.04 224.2 58.18 204.66 58.18 195.57 92.04 215.11 92.04 224.2" fill="#fff"></polygon><path d="M92,224.7a.52.52,0,0,1-.25-.07L57.93,205.09a.52.52,0,0,1-.25-.43v-9.09a.5.5,0,0,1,.25-.43.5.5,0,0,1,.5,0l33.86,19.54a.5.5,0,0,1,.25.43v9.09a.5.5,0,0,1-.25.43A.59.59,0,0,1,92,224.7ZM58.68,204.37l32.86,19V215.4l-32.86-19Z" fill="#231f20"></path><polygon points="125.89 204.68 92.04 224.17 92.04 215.08 125.89 195.59 125.89 204.68" fill="#fff"></polygon><path d="M92,224.67a.43.43,0,0,1-.25-.07.48.48,0,0,1-.25-.43v-9.09a.5.5,0,0,1,.25-.43l33.85-19.49a.5.5,0,0,1,.5,0,.48.48,0,0,1,.25.43v9.09a.48.48,0,0,1-.25.43L92.29,224.6A.47.47,0,0,1,92,224.67Zm.5-9.3v7.93l32.85-18.91v-7.93Zm33.35-10.69h0Z" fill="#231f20"></path><polygon points="92.04 215.12 58.18 195.57 92.04 176.03 125.89 195.57 92.04 215.12" fill="#231f20"></polygon><path d="M92,215.62a.52.52,0,0,1-.25-.07L57.93,196a.49.49,0,0,1-.25-.43.5.5,0,0,1,.25-.43l33.86-19.55a.5.5,0,0,1,.5,0l33.85,19.55a.48.48,0,0,1,.25.43.47.47,0,0,1-.25.43L92.29,215.55A.59.59,0,0,1,92,215.62ZM59.18,195.57l32.86,19,32.85-19L92,176.6Z" fill="#231f20"></path><polygon points="92.04 210.01 67.02 195.57 92.04 181.13 117.05 195.57 92.04 210.01" fill="#d1d3d4"></polygon><path d="M92,210.53a.59.59,0,0,1-.26-.07L66.77,196a.51.51,0,0,1-.26-.45.54.54,0,0,1,.26-.45l25-14.44a.52.52,0,0,1,.51,0l25,14.44a.53.53,0,0,1,.25.45.5.5,0,0,1-.25.45l-25,14.44A.55.55,0,0,1,92,210.53Zm-24-15,24,13.85,24-13.85L92,181.73Z" fill="#fff"></path><polygon points="92.04 210.27 58.18 190.73 58.18 181.65 92.04 201.19 92.04 210.27" fill="#fff"></polygon><path d="M92,210.77a.51.51,0,0,1-.25-.06L57.93,191.16a.5.5,0,0,1-.25-.43v-9.08a.52.52,0,0,1,.25-.44.5.5,0,0,1,.5,0l33.86,19.55a.49.49,0,0,1,.25.43v9.08a.52.52,0,0,1-.25.44A.57.57,0,0,1,92,210.77ZM58.68,190.44l32.86,19v-7.93l-32.86-19Z" fill="#231f20"></path><polygon points="125.89 190.75 92.04 210.24 92.04 201.16 125.89 181.67 125.89 190.75" fill="#fff"></polygon><path d="M92,210.74a.51.51,0,0,1-.25-.06.5.5,0,0,1-.25-.44v-9.08a.48.48,0,0,1,.25-.43l33.85-19.49a.5.5,0,0,1,.5,0,.48.48,0,0,1,.25.43v9.08a.5.5,0,0,1-.25.44L92.29,210.68A.57.57,0,0,1,92,210.74Zm.5-9.29v7.93l32.85-18.92v-7.93Zm33.35-10.7h0Z" fill="#231f20"></path><polygon points="92.04 201.19 58.18 181.65 92.04 162.1 125.89 181.65 92.04 201.19" fill="#231f20"></polygon><path d="M92,201.69a.51.51,0,0,1-.25-.06L57.93,182.08a.5.5,0,0,1-.25-.43.52.52,0,0,1,.25-.44l33.86-19.54a.5.5,0,0,1,.5,0l33.85,19.54a.5.5,0,0,1,.25.44.48.48,0,0,1-.25.43L92.29,201.63A.57.57,0,0,1,92,201.69Zm-32.86-20,32.86,19,32.85-19L92,162.68Z" fill="#231f20"></path><polygon points="92.04 196.09 67.02 181.65 92.04 167.21 117.05 181.65 92.04 196.09" fill="#d1d3d4"></polygon><path d="M92,196.6a.48.48,0,0,1-.26-.07l-25-14.44a.51.51,0,0,1,0-.89l25-14.44a.52.52,0,0,1,.51,0l25,14.44a.52.52,0,0,1,0,.89l-25,14.44A.45.45,0,0,1,92,196.6Zm-24-14.95,24,13.84,24-13.84L92,167.8Z" fill="#fff"></path><polygon points="92.04 196.35 58.18 176.81 58.18 167.72 92.04 187.26 92.04 196.35" fill="#fff"></polygon><path d="M92,196.85a.43.43,0,0,1-.25-.07L57.93,177.24a.5.5,0,0,1-.25-.43v-9.09a.5.5,0,0,1,.25-.43.5.5,0,0,1,.5,0l33.86,19.54a.5.5,0,0,1,.25.43v9.09a.5.5,0,0,1-.25.43A.47.47,0,0,1,92,196.85ZM58.68,176.52l32.86,19v-7.93l-32.86-19Z" fill="#231f20"></path><polygon points="125.89 176.83 92.04 196.32 92.04 187.24 125.89 167.75 125.89 176.83" fill="#fff"></polygon><path d="M92,196.82a.43.43,0,0,1-.25-.07.48.48,0,0,1-.25-.43v-9.08a.5.5,0,0,1,.25-.44l33.85-19.49a.5.5,0,0,1,.75.43v9.09a.48.48,0,0,1-.25.43L92.29,196.75A.47.47,0,0,1,92,196.82Zm.5-9.3v7.93l32.85-18.91v-7.93Zm33.35-10.69h0Z" fill="#231f20"></path><polygon points="92.04 187.27 58.18 167.72 92.04 148.18 125.89 167.72 92.04 187.27" fill="#fff"></polygon><path d="M92,187.77a.43.43,0,0,1-.25-.07L57.93,168.16a.52.52,0,0,1-.25-.44.5.5,0,0,1,.25-.43l33.86-19.55a.5.5,0,0,1,.5,0l33.85,19.55a.48.48,0,0,1,.25.43.5.5,0,0,1-.25.44L92.29,187.7A.47.47,0,0,1,92,187.77ZM59.18,167.72l32.86,19,32.85-19L92,148.75Z" fill="#231f20"></path><path d="M92,182.68a.48.48,0,0,1-.26-.07l-25-14.44a.51.51,0,0,1,0-.89l25-14.45a.52.52,0,0,1,.51,0l25,14.45a.52.52,0,0,1,0,.89l-25,14.44A.45.45,0,0,1,92,182.68Zm-24-15,24,13.85,24-13.85L92,153.88Z" fill="#d1d3d4"></path><ellipse cx="69.13" cy="178.33" rx="0.75" ry="1.3" transform="translate(-79.9 58.46) rotate(-30)" fill="#d1d3d4"></ellipse><ellipse cx="65.38" cy="176.16" rx="0.75" ry="1.3" transform="translate(-79.32 56.29) rotate(-30)" fill="#d1d3d4"></ellipse><ellipse cx="61.63" cy="173.99" rx="0.75" ry="1.3" transform="translate(-78.74 54.13) rotate(-30)" fill="#d1d3d4"></ellipse><ellipse cx="278.15" cy="151.97" rx="0.87" ry="1.5" transform="translate(-38.72 159.44) rotate(-30)" fill="#d1d3d4"></ellipse><ellipse cx="273.82" cy="149.47" rx="0.87" ry="1.5" transform="translate(-38.05 156.94) rotate(-30)" fill="#d1d3d4"></ellipse><ellipse cx="269.48" cy="146.96" rx="0.87" ry="1.5" transform="matrix(0.87, -0.5, 0.5, 0.87, -37.38, 154.43)" fill="#d1d3d4"></ellipse><path d="M267,252.28a.48.48,0,0,1-.26-.07l-38.85-22.89a.51.51,0,0,1-.19-.7.53.53,0,0,1,.71-.19l38.85,22.89a.51.51,0,0,1-.26,1Z" fill="#d1d3d4"></path><path d="M254.12,249v6.55c0,3.19,2.11,6.39,6.33,8.82,8.44,4.88,22.12,4.88,30.56,0,4.22-2.43,6.33-5.63,6.33-8.82V249Z" fill="#fff"></path><path d="M275.73,268.49a31.76,31.76,0,0,1-15.53-3.7c-4.24-2.45-6.58-5.74-6.58-9.26V249a.5.5,0,0,1,.5-.5h43.22a.5.5,0,0,1,.5.5v6.55c0,3.52-2.34,6.81-6.58,9.26A31.78,31.78,0,0,1,275.73,268.49Zm-21.11-19v6.05c0,3.15,2.16,6.13,6.08,8.39,8.29,4.79,21.77,4.79,30.06,0,3.92-2.26,6.08-5.24,6.08-8.39v-6.05Z" fill="#231f20"></path><ellipse cx="275.73" cy="248.07" rx="21.61" ry="12.48" fill="#fff"></ellipse><path d="M275.73,261a31.76,31.76,0,0,1-15.53-3.7c-4.24-2.45-6.58-5.74-6.58-9.26s2.34-6.81,6.58-9.26c8.56-4.94,22.5-4.94,31.06,0,4.24,2.45,6.58,5.74,6.58,9.26s-2.34,6.81-6.58,9.26A31.78,31.78,0,0,1,275.73,261Zm0-24.94a30.76,30.76,0,0,0-15,3.59c-3.92,2.26-6.08,5.24-6.08,8.39s2.16,6.13,6.08,8.39c8.29,4.79,21.77,4.78,30.06,0,3.92-2.26,6.08-5.24,6.08-8.39s-2.16-6.13-6.08-8.39A30.76,30.76,0,0,0,275.73,236.09Z" fill="#231f20"></path><ellipse cx="275.73" cy="248.07" rx="15.28" ry="8.82" fill="#fff"></ellipse><path d="M275.73,257.4a22.51,22.51,0,0,1-11.06-2.65c-3.06-1.76-4.74-4.13-4.74-6.68s1.68-4.92,4.74-6.69c6.1-3.52,16-3.52,22.12,0,3,1.77,4.74,4.14,4.74,6.69s-1.68,4.92-4.74,6.68h0A22.51,22.51,0,0,1,275.73,257.4Zm0-17.64a21.57,21.57,0,0,0-10.55,2.52c-2.72,1.57-4.22,3.63-4.22,5.79s1.5,4.22,4.22,5.79c5.82,3.36,15.28,3.36,21.1,0h0c2.72-1.57,4.21-3.63,4.21-5.79s-1.49-4.22-4.21-5.79A21.57,21.57,0,0,0,275.73,239.76Z" fill="#d1d3d4"></path><polygon points="199.5 251.82 139.03 216.92 139.03 200.69 199.5 235.59 199.5 251.82" fill="#fff"></polygon><path d="M199.5,252.32a.47.47,0,0,1-.25-.07l-60.47-34.9a.52.52,0,0,1-.25-.43V200.69a.5.5,0,0,1,.25-.43.5.5,0,0,1,.5,0l60.47,34.9a.5.5,0,0,1,.25.43v16.23a.48.48,0,0,1-.25.43A.45.45,0,0,1,199.5,252.32Zm-60-35.69L199,251V235.88l-59.47-34.32Z" fill="#231f20"></path><polygon points="259.97 216.96 199.5 251.77 199.5 235.54 259.97 200.73 259.97 216.96" fill="#fff"></polygon><path d="M199.5,252.27a.47.47,0,0,1-.25-.07.5.5,0,0,1-.25-.43V235.54a.5.5,0,0,1,.25-.43l60.47-34.81a.5.5,0,0,1,.5,0,.48.48,0,0,1,.25.43V217a.5.5,0,0,1-.25.43L199.75,252.2A.45.45,0,0,1,199.5,252.27Zm.5-16.44V250.9l59.47-34.23V201.59ZM260,217h0Z" fill="#231f20"></path><polygon points="199.5 235.6 139.03 200.69 199.5 165.78 259.97 200.69 199.5 235.6" fill="#fff"></polygon><path d="M199.5,236.1a.57.57,0,0,1-.25-.06l-60.47-34.92a.49.49,0,0,1,0-.86l60.47-34.92a.55.55,0,0,1,.5,0l60.47,34.92a.49.49,0,0,1,0,.86L199.75,236A.54.54,0,0,1,199.5,236.1ZM140,200.69,199.5,235,259,200.69,199.5,166.35Z" fill="#231f20"></path><ellipse cx="199.5" cy="200.69" rx="36" ry="20.78" fill="#fff"></ellipse><path d="M199.5,222c-9.31,0-18.62-2-25.71-6.14s-10.8-9.4-10.8-15.14,3.83-11.12,10.8-15.14c14.18-8.19,37.25-8.19,51.42,0,7,4,10.81,9.4,10.81,15.14s-3.84,11.12-10.81,15.14S208.81,222,199.5,222Zm0-41.55c-9.12,0-18.25,2-25.2,6-6.63,3.83-10.28,8.89-10.28,14.25s3.65,10.42,10.28,14.25c13.9,8,36.5,8,50.4,0,6.63-3.83,10.28-8.89,10.28-14.25s-3.65-10.42-10.28-14.25C217.75,182.43,208.63,180.42,199.5,180.42Z" fill="#d1d3d4"></path><polygon points="238.31 224.71 222.89 233.6 222.89 227.79 238.31 218.89 238.31 224.71" fill="#fff"></polygon><path d="M222.89,234.12a.48.48,0,0,1-.26-.07.5.5,0,0,1-.25-.45v-5.81a.5.5,0,0,1,.25-.44l15.42-8.9a.47.47,0,0,1,.51,0,.51.51,0,0,1,.26.44v5.82a.51.51,0,0,1-.26.44l-15.41,8.9A.48.48,0,0,1,222.89,234.12Zm.52-6v4.62l14.38-8.3v-4.62Zm14.9-3.38h0Z" fill="#d1d3d4"></path><ellipse cx="159.5" cy="220.9" rx="1.38" ry="2.4" transform="translate(-89.08 109.34) rotate(-30)" fill="#d1d3d4"></ellipse><ellipse cx="152.58" cy="216.91" rx="1.38" ry="2.4" transform="translate(-88.01 105.35) rotate(-30)" fill="#d1d3d4"></ellipse><ellipse cx="145.66" cy="212.92" rx="1.38" ry="2.4" transform="translate(-86.94 101.36) rotate(-30)" fill="#d1d3d4"></ellipse><polygon points="146.36 111.57 199.76 84.83 253.64 113.26 200 148.18 146.36 111.57" fill="#231f20"></polygon><path d="M200,148.68a.47.47,0,0,1-.28-.09L146.08,112a.5.5,0,0,1-.22-.45.51.51,0,0,1,.28-.41l53.4-26.75a.53.53,0,0,1,.46,0l53.87,28.44a.49.49,0,0,1,.27.42.52.52,0,0,1-.23.44L200.27,148.6A.53.53,0,0,1,200,148.68Zm-52.65-37L200,147.58l52.64-34.27L199.76,85.39Z" fill="#231f20"></path><polygon points="199.76 26.82 199.76 134.38 252.23 98.9 199.76 26.82" fill="#ff0055"></polygon><path d="M199.76,134.88a.46.46,0,0,1-.23-.06.5.5,0,0,1-.27-.44V26.82a.5.5,0,0,1,.35-.47.49.49,0,0,1,.56.18l52.46,72.08a.48.48,0,0,1,.09.38.52.52,0,0,1-.21.33L200,134.79A.47.47,0,0,1,199.76,134.88Zm.5-106.52V133.44l51.26-34.66Z" fill="#231f20"></path><polygon points="199.76 26.82 146.36 98.9 199.76 134.38 199.76 26.82" fill="#ff0055"></polygon><path d="M199.76,134.88a.53.53,0,0,1-.27-.08l-53.4-35.48a.49.49,0,0,1-.22-.33.51.51,0,0,1,.09-.38l53.4-72.08a.49.49,0,0,1,.56-.18.51.51,0,0,1,.34.47V134.38a.51.51,0,0,1-.26.44A.53.53,0,0,1,199.76,134.88Zm-52.68-36.1,52.18,34.67V28.34Z" fill="#231f20"></path><polygon points="146.36 111.57 199.76 186.19 199.76 148.18 146.36 111.57" fill="#ff0055"></polygon><path d="M199.76,186.69a.49.49,0,0,1-.4-.21L146,111.86a.49.49,0,0,1,0-.64.5.5,0,0,1,.64-.06l53.4,36.6a.53.53,0,0,1,.21.42v38a.5.5,0,0,1-.34.47A.45.45,0,0,1,199.76,186.69Zm-51.34-73.1,50.84,71V148.44Z" fill="#231f20"></path><polygon points="199.76 186.19 253.64 113.26 199.76 148.18 199.76 186.19" fill="#ff0055"></polygon><path d="M199.76,186.69a.4.4,0,0,1-.15,0,.5.5,0,0,1-.35-.47v-38a.5.5,0,0,1,.23-.42l53.88-34.92a.49.49,0,0,1,.63.08.5.5,0,0,1,0,.64l-53.87,72.92A.52.52,0,0,1,199.76,186.69Zm.5-38.24v36.22l51.34-69.49Z" fill="#231f20"></path><polygon points="72.26 144.2 91.95 134.34 111.81 144.82 92.04 157.69 72.26 144.2" fill="#231f20"></polygon><path d="M92,158.2a.52.52,0,0,1-.29-.09L72,144.61a.5.5,0,0,1-.22-.44.5.5,0,0,1,.28-.42l19.69-9.86a.51.51,0,0,1,.45,0l19.87,10.49a.51.51,0,0,1,0,.86L92.31,158.11A.46.46,0,0,1,92,158.2Zm-18.8-13.93L92,157.09l18.79-12.22-18.89-10Z" fill="#231f20"></path><polygon points="91.95 112.95 91.95 152.61 111.29 139.53 91.95 112.95" fill="#ff0055"></polygon><path d="M92,153.11a.53.53,0,0,1-.24-.06.51.51,0,0,1-.26-.44V113a.5.5,0,0,1,.9-.29l19.35,26.57a.52.52,0,0,1,.09.38.48.48,0,0,1-.22.33L92.23,153A.47.47,0,0,1,92,153.11Zm.5-38.62v37.18l18.14-12.27Z" fill="#231f20"></path><polygon points="91.95 112.95 72.26 139.53 91.95 152.61 91.95 112.95" fill="#ff0055"></polygon><path d="M92,153.11a.49.49,0,0,1-.28-.09L72,139.94a.47.47,0,0,1-.21-.33.48.48,0,0,1,.09-.38l19.69-26.58a.5.5,0,0,1,.9.3v39.66a.51.51,0,0,1-.26.44A.53.53,0,0,1,92,153.11ZM73,139.4l18.48,12.28V114.47Z" fill="#231f20"></path><polygon points="72.26 144.2 91.95 171.71 91.95 157.69 72.26 144.2" fill="#ff0055"></polygon><path d="M92,172.21a.49.49,0,0,1-.41-.21L71.85,144.49a.5.5,0,0,1,.69-.7l19.69,13.49a.51.51,0,0,1,.22.42v14a.5.5,0,0,1-.35.48Zm-17.63-26,17.13,23.93V158Z" fill="#231f20"></path><polygon points="91.95 171.71 111.81 144.82 91.95 157.69 91.95 171.71" fill="#ff0055"></polygon><path d="M92,172.21l-.16,0a.51.51,0,0,1-.34-.48v-14a.5.5,0,0,1,.23-.42l19.86-12.88a.5.5,0,0,1,.64.08.51.51,0,0,1,0,.64L92.35,172A.49.49,0,0,1,92,172.21Zm.5-14.24v12.22l17.33-23.45Z" fill="#231f20"></path><polygon points="280.17 102.26 303.62 90.51 327.27 103 303.72 118.33 280.17 102.26" fill="#231f20"></polygon><path d="M303.72,118.83a.49.49,0,0,1-.28-.09l-23.55-16.07a.5.5,0,0,1,.06-.86l23.44-11.75a.53.53,0,0,1,.46,0l23.66,12.49a.49.49,0,0,1,.26.42.5.5,0,0,1-.22.44L304,118.75A.57.57,0,0,1,303.72,118.83Zm-22.57-16.51,22.58,15.41L326.29,103l-22.68-12Z" fill="#231f20"></path><polygon points="303.62 65.04 303.62 112.27 326.66 96.69 303.62 65.04" fill="#ff0055"></polygon><path d="M303.62,112.77a.53.53,0,0,1-.24-.06.49.49,0,0,1-.26-.44V65a.5.5,0,0,1,.9-.29l23,31.65a.52.52,0,0,1,.09.38.56.56,0,0,1-.21.33l-23,15.58A.57.57,0,0,1,303.62,112.77Zm.5-46.19v44.75L326,96.57Z" fill="#231f20"></path><polygon points="303.62 65.04 280.17 96.69 303.62 112.27 303.62 65.04" fill="#ff0055"></polygon><path d="M303.62,112.77a.54.54,0,0,1-.28-.08L279.89,97.11a.49.49,0,0,1-.21-.33.48.48,0,0,1,.09-.38l23.45-31.65a.47.47,0,0,1,.55-.18.5.5,0,0,1,.35.47v47.23a.48.48,0,0,1-.27.44A.46.46,0,0,1,303.62,112.77Zm-22.74-16.2,22.24,14.77V66.56Z" fill="#231f20"></path><polygon points="280.17 102.26 303.62 135.02 303.62 118.33 280.17 102.26" fill="#ff0055"></polygon><path d="M303.62,135.52a.52.52,0,0,1-.41-.21l-23.45-32.76a.5.5,0,0,1,.69-.71l23.45,16.08a.48.48,0,0,1,.22.41V135a.5.5,0,0,1-.35.48Zm-21.39-31.25,20.89,29.19V118.59Z" fill="#231f20"></path><polygon points="303.62 135.02 327.27 103 303.62 118.33 303.62 135.02" fill="#ff0055"></polygon><path d="M303.62,135.52l-.16,0a.51.51,0,0,1-.34-.48V118.33a.48.48,0,0,1,.23-.42L327,102.58a.5.5,0,0,1,.64.08.51.51,0,0,1,0,.64l-23.66,32A.51.51,0,0,1,303.62,135.52Zm.5-16.92v14.9l21.12-28.58Z" fill="#231f20"></path></g></svg>