<svg id="e9WdsXI6rPL1" xmlns="http://www.w3.org/2000/svg" xmlns:xlink="http://www.w3.org/1999/xlink" viewBox="0 0 300 300" shape-rendering="geometricPrecision" text-rendering="geometricPrecision"><ellipse rx="150" ry="150" transform="translate(150 150)" fill="#fff" stroke-width="0"/><rect width="15" height="198.906004" rx="0" ry="0" transform="matrix(0 1-.500814 0 150 142.5)" fill="#7e42ff" stroke-width="0"/><ellipse rx="15" ry="15" transform="translate(142.5 142.5)" fill="#fff" stroke-width="0"/><ellipse rx="25" ry="25" transform="translate(50 150)" fill="#7e42ff" stroke-width="0"/><ellipse rx="25" ry="25" transform="translate(150 248.906004)" fill="#7e42ff" stroke-width="0"/><ellipse rx="30" ry="30" transform="translate(127.5 172.5)" fill="#7e42ff" stroke-width="0"/><ellipse rx="25" ry="25" transform="translate(150 44.748819)" fill="#7e42ff" stroke-width="0"/><ellipse rx="25" ry="25" transform="translate(250 100)" fill="#7e42ff" stroke-width="0"/><rect width="15" height="198.906004" rx="0" ry="0" transform="matrix(0 1-.500814 0 249.614911 92.5)" fill="#7e42ff" stroke-width="0"/><ellipse rx="15" ry="15" transform="translate(157.5 92.5)" fill="#fff" stroke-width="0"/><rect width="15" height="198.906004" rx="0" ry="0" transform="matrix(1 0 0 1.0055 142.5 49.999999)" fill="#7e42ff" stroke-width="0"/><ellipse rx="30" ry="30" transform="translate(172.5 122.5)" fill="#7e42ff" stroke-width="0"/><ellipse rx="15" ry="15" transform="translate(172.5 122.5)" fill="#fff" stroke-width="0"/><ellipse rx="15" ry="15" transform="translate(127.499997 172.5)" fill="#fff" stroke-width="0"/><rect width="31.060739" height="46.406004" rx="0" ry="0" transform="translate(93.939261 157.5)" fill="#fff" stroke-width="0"/><rect width="31.060739" height="46.406004" rx="0" ry="0" transform="translate(175 107.5)" fill="#fff" stroke-width="0"/><rect width="31.060739" height="46.406004" rx="0" ry="0" transform="matrix(0 1-1 0 203.906004 125)" fill="#fff" stroke-width="0"/><rect width="31.060739" height="46.406004" rx="0" ry="0" transform="matrix(0 1-1 0 142.5 175)" fill="#fff" stroke-width="0"/></svg>
